<?xml version="1.0" encoding="utf-8"?>
<!-- Generator: Adobe Illustrator 24.1.2, SVG Export Plug-In . SVG Version: 6.00 Build 0)  -->
<svg version="1.1" id="Layer_1" xmlns="http://www.w3.org/2000/svg" xmlns:xlink="http://www.w3.org/1999/xlink" x="0px" y="0px"
	 viewBox="0 0 280.5 54" style="enable-background:new 0 0 280.5 54;" xml:space="preserve">
<style type="text/css">
	.st0{fill-rule:evenodd;clip-rule:evenodd;fill:url(#SVGID_1_);}
	.st1{fill-rule:evenodd;clip-rule:evenodd;fill:#C8C8C8;}
	.st2{fill-rule:evenodd;clip-rule:evenodd;fill:url(#SVGID_2_);}
	.st3{fill-rule:evenodd;clip-rule:evenodd;fill:url(#SVGID_3_);}
	.st4{fill-rule:evenodd;clip-rule:evenodd;fill:url(#SVGID_4_);}
	.st5{fill-rule:evenodd;clip-rule:evenodd;fill:#EDB425;}
	.st6{fill:#636464;}
	.st7{fill:url(#SVGID_5_);}
	.st8{fill:url(#SVGID_6_);}
	.st9{fill:url(#SVGID_7_);}
	.st10{fill:url(#SVGID_8_);}
	.st11{fill:url(#SVGID_9_);}
	.st12{fill:url(#SVGID_10_);}
	.st13{fill:url(#SVGID_11_);}
	.st14{fill:url(#SVGID_12_);}
	.st15{fill:url(#SVGID_13_);}
	.st16{fill:url(#SVGID_14_);}
	.st17{fill:url(#SVGID_15_);}
</style>
<g>
	<g>
		
			<radialGradient id="SVGID_1_" cx="501.5069" cy="57.1831" r="19.8016" gradientTransform="matrix(-1.2285 0 0 1.2305 650.291 -42.6729)" gradientUnits="userSpaceOnUse">
			<stop  offset="0" style="stop-color:#8ED7F7"/>
			<stop  offset="1" style="stop-color:#0B63AF"/>
		</radialGradient>
		<path class="st0" d="M27.3,0.8C44.2,9.1,49.6,32,39.6,50.1c-3.9,2.2-8.3,3.5-13.1,3.5c-6.3,0-12.1-2.2-16.6-5.9
			c23.7-9.8,28.2-38.2,15-46.8c0.5,0,1.1,0,1.6,0C26.8,0.8,27.1,0.8,27.3,0.8z"/>
		<path class="st1" d="M39.6,50.1c10-18.1,4.6-41-12.2-49.3c0.9,0,1.8,0.1,2.6,0.2C44.3,7.7,52.2,32.9,39.6,50.1z"/>
		
			<radialGradient id="SVGID_2_" cx="510.9503" cy="54.3801" r="25.8567" gradientTransform="matrix(-1.2285 0 0 1.2305 650.291 -42.6729)" gradientUnits="userSpaceOnUse">
			<stop  offset="0" style="stop-color:#FFFFFF"/>
			<stop  offset="0.2026" style="stop-color:#F9F8F8"/>
			<stop  offset="0.3742" style="stop-color:#EBEAEA"/>
			<stop  offset="0.5345" style="stop-color:#D8D7D7"/>
			<stop  offset="0.688" style="stop-color:#C0BFBF"/>
			<stop  offset="0.8366" style="stop-color:#A4A3A4"/>
			<stop  offset="0.9797" style="stop-color:#858788"/>
			<stop  offset="1" style="stop-color:#808284"/>
		</radialGradient>
		<path class="st2" d="M24.9,0.8c13.2,8.6,8.7,37-15,46.8c-6-4.8-9.8-12.2-9.8-20.5C0.1,13.1,11.1,1.7,24.9,0.8z"/>
		
			<radialGradient id="SVGID_3_" cx="492.4738" cy="54.637" r="19.9727" gradientTransform="matrix(-1.2285 0 0 1.2305 650.291 -42.6729)" gradientUnits="userSpaceOnUse">
			<stop  offset="0" style="stop-color:#FFFFFF"/>
			<stop  offset="1" style="stop-color:#BBBDBF"/>
		</radialGradient>
		<path class="st3" d="M39.6,50.1C52.2,32.9,44.3,7.7,30,1C45,3.2,52.8,16,52.8,27.2C52.8,38.3,46.7,45.8,39.6,50.1z"/>
		<radialGradient id="SVGID_4_" cx="26.9398" cy="43.2188" r="11.1804" gradientUnits="userSpaceOnUse">
			<stop  offset="0" style="stop-color:#F8EB32"/>
			<stop  offset="1" style="stop-color:#F69321"/>
		</radialGradient>
		<path class="st4" d="M38.7,32.9c0.7,6.9-0.3,13.3-3,19c-2.9,1.1-6,1.6-9.2,1.6c-4.1,0-8-1-11.5-2.7C24.2,48.9,32,42.9,38.7,32.9z"
			/>
		<path class="st5" d="M36.9,32.7l1.7,0.2c-6.6,10-14.4,16-23.6,18.1c-0.7-0.3-1.4-0.7-2-1.1C23.9,48,32.7,39.6,36.9,32.7z"/>
	</g>
	<g>
		<g>
			<path class="st6" d="M66.9,49.6c-0.2,0.4-0.4,0.7-0.7,0.9c-0.3,0.3-0.7,0.4-1.2,0.5c-0.3,0.1-0.8,0.1-1.3,0.1h-1v2.4h-2.1v-7.7
				h2.8c0.3,0,0.5,0,0.7,0c0.3,0,0.5,0,0.7,0.1c0.5,0.1,1,0.2,1.3,0.5c0.7,0.5,1,1.2,1,2C67.1,48.9,67,49.3,66.9,49.6z M64.5,47.8
				c-0.2-0.1-0.6-0.2-1-0.2h-0.8v1.8h0.9c0.4,0,0.8-0.1,1-0.2c0.3-0.1,0.4-0.4,0.4-0.7C65,48.2,64.8,48,64.5,47.8z"/>
			<path class="st6" d="M81.2,53.6l-0.4-1.1h-3l-0.5,1.1h-2.4l3.5-7.7h1.7l3.5,7.7H81.2z M79.3,48.3L79.3,48.3l-0.9,2.6h1.8
				L79.3,48.3z"/>
			<path class="st6" d="M101.1,50.7c-0.3,0.9-0.8,1.6-1.6,2.2c-0.8,0.6-1.7,0.8-2.8,0.8c-1.3,0-2.3-0.4-3.2-1.2
				c-0.9-0.8-1.3-1.7-1.3-2.8c0-1.1,0.4-2.1,1.3-2.8c0.9-0.8,2-1.1,3.2-1.1c1.7,0,2.9,0.6,3.8,1.8c0.3,0.4,0.5,0.8,0.6,1.3h-2.3
				c-0.4-0.9-1.1-1.3-2.1-1.3c-0.7,0-1.2,0.2-1.7,0.7c-0.4,0.4-0.6,1-0.6,1.6c0,0.6,0.2,1.1,0.6,1.6c0.4,0.5,1,0.7,1.7,0.7
				c0.9,0,1.6-0.4,2.1-1.3H101.1z"/>
			<path class="st6" d="M115.1,53.2c-0.5,0.4-1.3,0.6-2.2,0.6c-0.9,0-1.7-0.2-2.2-0.6c-0.6-0.4-0.9-1-0.9-1.8v-0.2h2.2
				c0,0.3,0.1,0.5,0.2,0.7c0.2,0.2,0.4,0.3,0.7,0.3c0.6,0,0.8-0.2,0.8-0.7c0-0.2-0.1-0.4-0.3-0.5c-0.1-0.1-0.2-0.1-0.3-0.2l-0.2-0.1
				l-0.9-0.4c-0.3-0.1-0.6-0.2-0.8-0.3c-0.3-0.1-0.5-0.3-0.7-0.5c-0.4-0.4-0.6-0.8-0.6-1.4c0-0.7,0.3-1.2,1-1.7
				c0.6-0.4,1.3-0.6,2.1-0.6c0.4,0,0.9,0.1,1.3,0.2c0.4,0.2,0.8,0.4,1.1,0.7c0.4,0.4,0.6,0.9,0.6,1.5h-2.2c-0.1-0.5-0.3-0.7-0.8-0.7
				c-0.5,0-0.8,0.2-0.8,0.6c0,0.1,0,0.2,0.1,0.3c0.1,0.1,0.4,0.3,0.8,0.5l0.9,0.4c0.3,0.1,0.6,0.3,0.8,0.4c0.3,0.1,0.5,0.3,0.6,0.5
				c0.4,0.4,0.6,0.8,0.6,1.4C116,52.2,115.7,52.8,115.1,53.2z"/>
			<path class="st6" d="M139.2,47.7V49h2.5v1.7h-2.5v2.9h-2.1v-7.7h4.7v1.7H139.2z"/>
			<path class="st6" d="M158.7,52.6c-0.9,0.8-2,1.1-3.3,1.1c-1.2,0-2.3-0.4-3.2-1.1c-0.9-0.8-1.4-1.7-1.4-2.8c0-0.6,0.1-1.1,0.3-1.6
				c0.1-0.3,0.3-0.6,0.6-0.9c0.9-1,2.1-1.6,3.7-1.6c1.3,0,2.4,0.4,3.2,1.1c0.9,0.8,1.3,1.7,1.3,2.8C160,50.9,159.6,51.8,158.7,52.6z
				 M157.2,48.2c-0.5-0.5-1-0.7-1.7-0.7c-0.7,0-1.3,0.2-1.7,0.7c-0.4,0.4-0.7,1-0.7,1.6c0,0.6,0.2,1.2,0.7,1.6
				c0.5,0.5,1,0.7,1.7,0.7c0.7,0,1.2-0.2,1.7-0.7c0.4-0.4,0.6-1,0.6-1.6C157.8,49.2,157.6,48.6,157.2,48.2z"/>
			<path class="st6" d="M173.6,53.6l-2-2.5h0v2.5h-2.1v-7.7h2.7c0.3,0,0.5,0,0.7,0c0.3,0,0.5,0,0.7,0.1c0.5,0.1,0.9,0.2,1.3,0.5
				c0.7,0.5,1.1,1.2,1.1,2.1c0,0.6-0.2,1.1-0.6,1.6c-0.4,0.5-0.9,0.7-1.6,0.8l2.4,2.6H173.6z M173.4,47.9c-0.2-0.2-0.6-0.2-1-0.2
				h-0.8v2.1h0.8c1,0,1.5-0.4,1.5-1.1C173.8,48.3,173.7,48.1,173.4,47.9z"/>
			<path class="st6" d="M203.5,49.6c-0.2,0.4-0.4,0.7-0.7,0.9c-0.3,0.3-0.7,0.4-1.2,0.5c-0.3,0.1-0.8,0.1-1.3,0.1h-1v2.4h-2.1v-7.7
				h2.8c0.3,0,0.5,0,0.7,0c0.3,0,0.5,0,0.7,0.1c0.5,0.1,1,0.2,1.3,0.5c0.7,0.5,1,1.2,1,2C203.7,48.9,203.6,49.3,203.5,49.6z
				 M201.1,47.8c-0.2-0.1-0.6-0.2-1-0.2h-0.8v1.8h0.9c0.4,0,0.8-0.1,1-0.2c0.3-0.1,0.4-0.4,0.4-0.7C201.6,48.2,201.4,48,201.1,47.8z
				"/>
			<path class="st6" d="M212.9,53.6v-7.7h4.8v1.7H215v1.2h2.6v1.7H215v1.3h2.7v1.7H212.9z"/>
			<path class="st6" d="M234.7,52.6c-0.9,0.8-2,1.1-3.3,1.1c-1.2,0-2.3-0.4-3.2-1.1c-0.9-0.8-1.4-1.7-1.4-2.8c0-0.6,0.1-1.1,0.3-1.6
				c0.1-0.3,0.3-0.6,0.6-0.9c0.9-1,2.1-1.6,3.7-1.6c1.3,0,2.4,0.4,3.2,1.1c0.9,0.8,1.3,1.7,1.3,2.8
				C236.1,50.9,235.6,51.8,234.7,52.6z M233.2,48.2c-0.5-0.5-1-0.7-1.7-0.7c-0.7,0-1.3,0.2-1.7,0.7c-0.4,0.4-0.7,1-0.7,1.6
				c0,0.6,0.2,1.2,0.7,1.6c0.5,0.5,1,0.7,1.7,0.7c0.7,0,1.2-0.2,1.7-0.7c0.4-0.4,0.6-1,0.6-1.6C233.8,49.2,233.6,48.6,233.2,48.2z"
				/>
			<path class="st6" d="M251.8,49.6c-0.2,0.4-0.4,0.7-0.7,0.9c-0.3,0.3-0.7,0.4-1.2,0.5c-0.3,0.1-0.8,0.1-1.3,0.1h-1v2.4h-2.1v-7.7
				h2.8c0.3,0,0.5,0,0.7,0c0.3,0,0.5,0,0.7,0.1c0.5,0.1,1,0.2,1.3,0.5c0.7,0.5,1,1.2,1,2C252,48.9,251.9,49.3,251.8,49.6z
				 M249.4,47.8c-0.2-0.1-0.6-0.2-1-0.2h-0.8v1.8h0.9c0.4,0,0.8-0.1,1-0.2c0.3-0.1,0.4-0.4,0.4-0.7C249.9,48.2,249.7,48,249.4,47.8z
				"/>
			<path class="st6" d="M261.2,53.6v-7.7h2.2v6h2.6v1.7H261.2z"/>
			<path class="st6" d="M275.1,53.6v-7.7h4.8v1.7h-2.7v1.2h2.6v1.7h-2.6v1.3h2.7v1.7H275.1z"/>
		</g>
		<g>
			<g>
				<radialGradient id="SVGID_5_" cx="106.9926" cy="-16.4865" r="59.2873" gradientUnits="userSpaceOnUse">
					<stop  offset="0" style="stop-color:#F8EB32"/>
					<stop  offset="1" style="stop-color:#F69321"/>
				</radialGradient>
				<path class="st7" d="M69.6,40.2h-9.1V14.3h8.6c1.3,0,2.4,0.1,3.4,0.2c1.1,0.1,2.1,0.4,3,0.7c2,0.7,3.7,2,5.1,3.9
					c1.6,2.2,2.4,4.9,2.4,8.1C83,35.9,78.5,40.2,69.6,40.2z M74.9,22.1c-1.1-1.4-2.7-2.1-4.8-2.1h-2.9v14.3H70c2.2,0,3.8-0.7,4.9-2
					c1-1.2,1.5-2.9,1.5-5.1C76.4,25.1,75.9,23.4,74.9,22.1z"/>
				<radialGradient id="SVGID_6_" cx="106.9926" cy="-16.4865" r="59.2873" gradientUnits="userSpaceOnUse">
					<stop  offset="0" style="stop-color:#F8EB32"/>
					<stop  offset="1" style="stop-color:#F69321"/>
				</radialGradient>
				<path class="st8" d="M86.9,40.2V14.3h14.4v5.8h-8.1v4h7.8v5.8h-7.8v4.4h8.1v5.8H86.9z"/>
				<radialGradient id="SVGID_7_" cx="106.9926" cy="-16.4865" r="59.2873" gradientUnits="userSpaceOnUse">
					<stop  offset="0" style="stop-color:#F8EB32"/>
					<stop  offset="1" style="stop-color:#F69321"/>
				</radialGradient>
				<path class="st9" d="M105.6,40.2V14.3h6.6v20.1h7.7v5.8H105.6z"/>
				<radialGradient id="SVGID_8_" cx="106.9926" cy="-16.4865" r="59.2873" gradientUnits="userSpaceOnUse">
					<stop  offset="0" style="stop-color:#F8EB32"/>
					<stop  offset="1" style="stop-color:#F69321"/>
				</radialGradient>
				<path class="st10" d="M129.6,20.1v20.1H123V20.1h-5.1v-5.8h16.8v5.8H129.6z"/>
				<radialGradient id="SVGID_9_" cx="106.9926" cy="-16.4865" r="59.2873" gradientUnits="userSpaceOnUse">
					<stop  offset="0" style="stop-color:#F8EB32"/>
					<stop  offset="1" style="stop-color:#F69321"/>
				</radialGradient>
				<path class="st11" d="M150.8,40.2l-1.3-3.7h-9l-1.4,3.7h-7.1l10.4-25.9h5.2L158,40.2H150.8z M145.2,22.3h-0.1l-2.7,8.9h5.4
					L145.2,22.3z"/>
			</g>
			<g>
				<radialGradient id="SVGID_10_" cx="173.1001" cy="27.1909" r="10.6708" gradientUnits="userSpaceOnUse">
					<stop  offset="0" style="stop-color:#8ED7F7"/>
					<stop  offset="1" style="stop-color:#0B63AF"/>
				</radialGradient>
				<path class="st12" d="M178.5,38.1c-1.5,1.4-3.2,2.1-5.3,2.1c-2.2,0-4.1-0.7-5.5-2.1c-1.4-1.4-2.2-3.2-2.2-5.4h2.5
					c0.1,3.5,1.9,5.2,5.2,5.2c1.4,0,2.6-0.5,3.6-1.4c1-1,1.5-2.2,1.5-3.6c0-1.5-0.6-2.7-1.8-3.6c-0.5-0.4-1.1-0.7-1.8-1
					c-0.5-0.2-1.2-0.5-2-0.7c-1-0.3-1.9-0.6-2.5-0.9c-0.8-0.4-1.5-0.8-2.1-1.2c-1.3-1.1-1.9-2.6-1.9-4.6c0-2,0.7-3.6,2.1-4.9
					c1.4-1.3,3-1.9,5-1.9c1.9,0,3.6,0.6,4.9,1.9c1.4,1.3,2,2.9,2,4.9h-2.5c0-1.2-0.4-2.3-1.3-3.2c-0.9-0.9-1.9-1.4-3.1-1.4
					c-1.3,0-2.3,0.4-3.2,1.2c-0.9,0.8-1.3,1.9-1.3,3.1c0,1.5,0.7,2.6,2,3.3c0.5,0.3,1.1,0.5,1.9,0.8l2,0.6c1.9,0.6,3.4,1.4,4.4,2.6
					c1.1,1.3,1.7,2.8,1.7,4.7C180.8,34.9,180,36.6,178.5,38.1z"/>
				<radialGradient id="SVGID_11_" cx="191.6483" cy="27.5729" r="11.3672" gradientUnits="userSpaceOnUse">
					<stop  offset="0" style="stop-color:#8ED7F7"/>
					<stop  offset="1" style="stop-color:#0B63AF"/>
				</radialGradient>
				<path class="st13" d="M192.9,31.7v8.4h-2.5v-8.4L181.6,15h2.8l7.2,14.1l7.4-14.1h2.8L192.9,31.7z"/>
				<radialGradient id="SVGID_12_" cx="210.0799" cy="27.1336" r="10.6708" gradientUnits="userSpaceOnUse">
					<stop  offset="0" style="stop-color:#8ED7F7"/>
					<stop  offset="1" style="stop-color:#0B63AF"/>
				</radialGradient>
				<path class="st14" d="M215.5,38c-1.5,1.4-3.2,2.1-5.3,2.1c-2.2,0-4.1-0.7-5.5-2.1c-1.4-1.4-2.2-3.2-2.2-5.4h2.5
					c0.1,3.5,1.9,5.2,5.2,5.2c1.4,0,2.6-0.5,3.6-1.4c1-1,1.5-2.2,1.5-3.6c0-1.5-0.6-2.7-1.8-3.6c-0.5-0.4-1.1-0.7-1.8-1
					c-0.5-0.2-1.2-0.5-2-0.7c-1-0.3-1.9-0.6-2.5-0.9c-0.8-0.4-1.5-0.8-2.1-1.2c-1.3-1.1-1.9-2.6-1.9-4.6c0-2,0.7-3.6,2.1-4.9
					c1.4-1.3,3-1.9,5-1.9c1.9,0,3.6,0.6,4.9,1.9c1.4,1.3,2,2.9,2,4.9h-2.5c0-1.2-0.4-2.3-1.3-3.2c-0.9-0.9-1.9-1.4-3.1-1.4
					c-1.3,0-2.3,0.4-3.2,1.2c-0.9,0.8-1.3,1.9-1.3,3.1c0,1.5,0.7,2.6,2,3.3c0.5,0.3,1.1,0.5,1.9,0.8l2,0.6c1.9,0.6,3.4,1.4,4.4,2.6
					c1.1,1.3,1.7,2.8,1.7,4.7C217.7,34.8,217,36.6,215.5,38z"/>
				<radialGradient id="SVGID_13_" cx="225.777" cy="27.5729" r="10.174" gradientUnits="userSpaceOnUse">
					<stop  offset="0" style="stop-color:#8ED7F7"/>
					<stop  offset="1" style="stop-color:#0B63AF"/>
				</radialGradient>
				<path class="st15" d="M227.1,17.3v22.8h-2.5V17.3h-5.8V15h14v2.3H227.1z"/>
				<radialGradient id="SVGID_14_" cx="242.2615" cy="27.5729" r="10.1258" gradientUnits="userSpaceOnUse">
					<stop  offset="0" style="stop-color:#8ED7F7"/>
					<stop  offset="1" style="stop-color:#0B63AF"/>
				</radialGradient>
				<path class="st16" d="M235.4,40.1V15h13.7v2.3h-11.2v9h10.9v2.3h-10.9v9.3h11.2v2.3H235.4z"/>
				<radialGradient id="SVGID_15_" cx="266.7928" cy="27.5729" r="12.7942" gradientUnits="userSpaceOnUse">
					<stop  offset="0" style="stop-color:#8ED7F7"/>
					<stop  offset="1" style="stop-color:#0B63AF"/>
				</radialGradient>
				<path class="st17" d="M277.3,40.1V17.8h-0.1l-9.4,22.4h-2.1l-9.3-22.4h-0.1v22.4h-2.5V15h3.9l9.1,21.4l9.2-21.4h3.9v25.1H277.3z
					"/>
			</g>
		</g>
	</g>
</g>
</svg>
