<svg xmlns="http://www.w3.org/2000/svg" xmlns:xlink="http://www.w3.org/1999/xlink" viewBox="0 0 52.69 52.78"><defs><style>.cls-1,.cls-2,.cls-3,.cls-4,.cls-5,.cls-6{fill-rule:evenodd;}.cls-1{fill:url(#GradientFill_2);}.cls-2{fill:#c8c8c8;}.cls-3{fill:url(#GradientFill_3);}.cls-4{fill:url(#GradientFill_4);}.cls-5{fill:url(#radial-gradient);}.cls-6{fill:#edb425;}</style><radialGradient id="GradientFill_2" cx="674.99" cy="52.1" r="19.8" gradientTransform="matrix(-1.23, 0, 0, 1.23, 863.27, -37.2)" gradientUnits="userSpaceOnUse"><stop offset="0" stop-color="#8ed7f7"/><stop offset="1" stop-color="#0b63af"/></radialGradient><radialGradient id="GradientFill_3" cx="684.44" cy="49.3" r="25.86" gradientTransform="matrix(-1.23, 0, 0, 1.23, 863.27, -37.2)" gradientUnits="userSpaceOnUse"><stop offset="0" stop-color="#fff"/><stop offset="0.21" stop-color="#fcfcfc"/><stop offset="0.38" stop-color="#f1f1f2"/><stop offset="0.54" stop-color="#e0e0e1"/><stop offset="0.7" stop-color="#c7c8c9"/><stop offset="0.85" stop-color="#a8a9aa"/><stop offset="1" stop-color="#818385"/><stop offset="1" stop-color="#808284"/></radialGradient><radialGradient id="GradientFill_4" cx="665.96" cy="49.56" r="19.97" gradientTransform="matrix(-1.23, 0, 0, 1.23, 863.27, -37.2)" gradientUnits="userSpaceOnUse"><stop offset="0" stop-color="#fff"/><stop offset="1" stop-color="#bbbdbf"/></radialGradient><radialGradient id="radial-gradient" cx="26.8" cy="42.44" r="11.18" gradientUnits="userSpaceOnUse"><stop offset="0" stop-color="#f8eb32"/><stop offset="1" stop-color="#f69321"/></radialGradient></defs><g id="Layer_2" data-name="Layer 2"><g id="Layer_1-2" data-name="Layer 1"><path class="cls-1" d="M27.2,0C44.06,8.33,49.45,31.18,39.42,49.3A26.28,26.28,0,0,1,9.76,46.88C33.45,37.08,38,8.65,24.73.05c.53,0,1.07,0,1.62,0Z"/><path class="cls-2" d="M39.42,49.3c10-18.12,4.64-41-12.22-49.29a24.82,24.82,0,0,1,2.61.22C44.17,7,52.07,32.12,39.42,49.3Z"/><path class="cls-3" d="M24.73.05c13.25,8.6,8.72,37-15,46.83A26.39,26.39,0,0,1,24.73.05Z"/><path class="cls-4" d="M39.42,49.3C52.07,32.12,44.17,7,29.81.23A26.54,26.54,0,0,1,52.69,26.39C52.69,37.51,46.52,45,39.42,49.3Z"/><path class="cls-5" d="M38.52,32.11a34.66,34.66,0,0,1-3,19,26.36,26.36,0,0,1-20.7-1Q28.6,47.07,38.52,32.11Z"/><path class="cls-6" d="M36.79,31.94l1.73.17c-6.64,10-14.35,16-23.57,18.07-.66-.32-1.42-.72-2-1.09C23.76,47.24,32.53,38.87,36.79,31.94Z"/></g></g></svg>