<svg xmlns="http://www.w3.org/2000/svg" xmlns:xlink="http://www.w3.org/1999/xlink" viewBox="0 0 1031.46 576.8"><defs><style>.cls-1{isolation:isolate;}.cls-2{opacity:0.5;mix-blend-mode:multiply;}.cls-3{fill:#fba9f5;stroke:#000;stroke-miterlimit:10;stroke-width:0.63px;opacity:0;}.cls-4{fill:#e89ce2;opacity:0.08;}.cls-5{fill:#d48fcf;opacity:0.15;}.cls-6{fill:#c182bc;opacity:0.23;}.cls-7{fill:#ae75aa;opacity:0.31;}.cls-8{fill:#9a6897;opacity:0.38;}.cls-9{fill:#875b84;opacity:0.46;}.cls-10{fill:#744e71;opacity:0.54;}.cls-11{fill:#61415e;opacity:0.62;}.cls-12{fill:#4d344b;opacity:0.69;}.cls-13{fill:#3a2739;opacity:0.77;}.cls-14{fill:#271a26;opacity:0.85;}.cls-15{fill:#130d13;opacity:0.92;}.cls-16{fill:#e3d7e9;}.cls-17{fill:url(#linear-gradient);}</style><linearGradient id="linear-gradient" x1="1031.46" y1="288.4" x2="0" y2="288.4" gradientUnits="userSpaceOnUse"><stop offset="0" stop-color="#aecde1"/><stop offset="0.29" stop-color="#97c1db"/><stop offset="0.58" stop-color="#7cb2d3"/><stop offset="0.82" stop-color="#65819c"/><stop offset="1" stop-color="#525a70"/></linearGradient></defs><g class="cls-1"><g id="Layer_2" data-name="Layer 2"><g id="layer"><g id="_Group_" data-name="&lt;Group&gt;"><g class="cls-2"><path class="cls-3" d="M84,171.94c4-6.67,11.23-10.59,18.35-13.68s14.64-5.84,20.27-11.18c7.14-6.77,10.19-16.76,12-26.43S137.41,101,141.5,92c6.68-14.63,37.67-27.38,36.6-2.85-.36,8.13-5.07,19-7,27.09-2.6,11.07-6.76,21.85-14.5,30.4-10.95,12.08-27.33,18-38.72,29.69-4.34,4.45-7.91,9.7-12.87,13.45s-12,5.76-17.4,2.71C80.89,188.69,80,178.61,84,171.94Zm19.49,64.3c.94,6.56-3.61,13-9.47,16.08-6.77,3.57-16.88,2.43-19.85-4.62C67.42,231.71,100.74,217.23,103.48,236.24Zm358.71,34.31a48.87,48.87,0,0,1-31.26,40.5c-9.15,3.33-19.42,3.91-27.59,9.19s-12.5,18.46-4.86,24.49c7.42,5.85,18.19-.1,25-6.61s15.1-14.38,24.23-11.94c11.64,3.12,12.16,21.11,3.67,29.68s-21.28,10.64-32.92,13.8-24.25,9.32-27.41,21c-4.74,17.4,14.58,33.13,14.06,51.16-.47,15.94-17.06,27.53-33,28.38s-31.09-6.11-45.57-12.79-29.83-13.39-45.71-12c-22.55,1.94-40.14,19.29-58.53,32.48-24.58,17.6-54.3,29-84.52,28.27s-60.68-14.62-78.08-39.35-19.57-60.31-2.3-85.13c9.67-13.9,24.83-24.48,29.86-40.66,8.74-28.07-5.75-60.36,26.57-77.36,10.78-5.67,23-7.79,35-9.89a21.1,21.1,0,0,0,6.95-2.07c2.1-1.22,3.83-3.38,3.84-5.8,0-4-4.7-6.68-8.67-6.09-9.21,1.39-10.74,9-21.36,7.5-7.68-1.07-15.35-5.06-18.75-12.34-5.59-12,2.69-26.29,13.47-33.95s24-11.39,34.77-19c27.19-19.17,18.44-47.46,29.32-73.85,10.81-26.22,34.13-46.9,62.86-50.52C284.37,53.4,319,73.34,332,104c2.83,6.68,5.54,14.63,12.38,17,7.92,2.81,16.11-3.68,24.51-3.93,10.61-.3,19.13,9.72,21.36,20.1s-.1,21.11-1.49,31.63-1.64,22,4.09,30.9c9.61,15,30.74,16.22,46.07,25.26A48.87,48.87,0,0,1,462.19,270.55ZM13.38,10.26l-2,554H502.68l-.53-553Z"/><path class="cls-4" d="M82.9,171.81c4-6.76,11.38-10.73,18.59-13.87S116.33,152,122,146.61c7.24-6.86,10.33-17,12.19-26.79s2.82-19.94,7-29c6.76-14.83,38.17-27.75,37.09-2.9-.36,8.25-5.14,19.27-7.06,27.45-2.63,11.23-6.84,22.15-14.69,30.81-11.1,12.25-27.7,18.26-39.23,30.09-4.4,4.51-8,9.83-13.05,13.64s-12.14,5.83-17.64,2.74C79.75,188.78,78.88,178.56,82.9,171.81ZM102.65,237c.95,6.66-3.66,13.16-9.6,16.3-6.85,3.62-17.11,2.46-20.11-4.68C66.11,232.38,99.88,217.7,102.65,237Zm361.42,34.1a49.21,49.21,0,0,1-31.48,40.77c-9.21,3.35-19.55,3.93-27.78,9.26s-12.58,18.58-4.89,24.65c7.47,5.89,18.31-.1,25.2-6.66s15.21-14.48,24.39-12c11.73,3.15,12.25,21.25,3.71,29.88s-21.43,10.71-33.15,13.9-24.41,9.38-27.6,21.1c-4.77,17.52,14.69,33.36,14.16,51.51-.47,16.05-17.18,27.72-33.21,28.57s-31.31-6.15-45.89-12.88-30-13.48-46-12.1c-22.7,2-40.41,19.43-58.93,32.7-24.74,17.73-54.66,29.2-85.09,28.46s-61.1-14.72-78.61-39.61-19.7-60.73-2.32-85.71c9.74-14,25-24.65,30.07-40.93,8.79-28.27-5.8-60.78,26.74-77.89,10.86-5.71,23.19-7.85,35.28-10a21.28,21.28,0,0,0,7-2.09,7.17,7.17,0,0,0,3.87-5.84c0-4-4.73-6.72-8.73-6.12-9.27,1.39-10.82,9-21.5,7.55-7.74-1.08-15.46-5.1-18.88-12.43C104.77,223.1,113.1,208.7,124,201s24.12-11.47,35-19.15c27.37-19.3,18.56-47.78,29.52-74.36,10.88-26.39,34.36-47.21,63.28-50.86C285,52.43,319.89,72.5,333,103.37c2.85,6.72,5.58,14.72,12.46,17.16,8,2.82,16.22-3.71,24.68-4,10.68-.31,19.26,9.79,21.5,20.24s-.1,21.25-1.5,31.84-1.65,22.12,4.12,31.11c9.68,15.09,30.95,16.33,46.39,25.43A49.24,49.24,0,0,1,464.07,271.06ZM12.35,9.47,10.51,565.22H503.69l-.5-554.83Z"/><path class="cls-5" d="M81.81,171.67c4.07-6.85,11.53-10.87,18.83-14s15-6,20.82-11.48c7.33-6.95,10.47-17.21,12.35-27.14s2.85-20.21,7.05-29.4c6.85-15,38.68-28.12,37.58-2.93-.37,8.35-5.21,19.52-7.15,27.81-2.67,11.38-6.94,22.44-14.89,31.22-11.24,12.4-28.06,18.49-39.75,30.48-4.46,4.57-8.13,10-13.22,13.82s-12.31,5.91-17.87,2.77C78.62,188.87,77.73,178.52,81.81,171.67Zm20,66c1,6.74-3.71,13.33-9.73,16.51-6.94,3.66-17.33,2.49-20.38-4.74C64.79,233,99,218.17,101.82,237.69ZM466,271.56a49.58,49.58,0,0,1-31.7,41.05c-9.27,3.37-19.68,4-28,9.32s-12.67,18.7-4.92,24.81c7.51,5.94,18.43-.09,25.36-6.7s15.31-14.57,24.56-12.1c11.8,3.17,12.33,21.4,3.73,30.08s-21.58,10.79-33.37,14-24.58,9.44-27.79,21.24c-4.8,17.64,14.79,33.58,14.25,51.86-.47,16.15-17.29,27.9-33.43,28.76s-31.52-6.19-46.19-13-30.24-13.58-46.34-12.19c-22.86,2-40.68,19.56-59.33,32.92-24.9,17.85-55,29.4-85.66,28.66S75.65,495.49,58,470.42s-19.84-61.13-2.34-86.28c9.81-14.09,25.18-24.82,30.28-41.21,8.85-28.46-5.84-61.18,26.92-78.41,10.93-5.76,23.34-7.91,35.51-10a21,21,0,0,0,7-2.1c2.13-1.22,3.89-3.41,3.9-5.88,0-4.06-4.77-6.76-8.79-6.16-9.33,1.4-10.89,9.1-21.65,7.6-7.79-1.08-15.56-5.13-19-12.51-5.67-12.15,2.72-26.65,13.65-34.41s24.29-11.55,35.24-19.28c27.56-19.43,18.69-48.11,29.72-74.86,11-26.57,34.6-47.53,63.71-51.2,33.49-4.23,68.59,16,81.75,47.06,2.87,6.77,5.62,14.82,12.55,17.28,8,2.84,16.33-3.74,24.84-4,10.75-.31,19.39,9.85,21.65,20.37s-.1,21.4-1.51,32.06-1.66,22.27,4.15,31.33c9.74,15.18,31.16,16.43,46.69,25.59A49.55,49.55,0,0,1,466,271.56ZM11.32,8.68,9.63,566.19H504.69L504.24,9.52Z"/><path class="cls-6" d="M80.71,171.53c4.13-6.93,11.69-11,19.09-14.23s15.23-6.07,21.08-11.63c7.43-7,10.61-17.43,12.51-27.49s2.9-20.47,7.15-29.79c6.94-15.22,39.18-28.48,38.06-3-.37,8.46-5.27,19.78-7.24,28.18-2.7,11.52-7,22.73-15.08,31.62C144.89,157.79,127.85,164,116,176.1c-4.51,4.63-8.23,10.09-13.39,14s-12.47,6-18.1,2.81C77.48,189,76.59,178.47,80.71,171.53ZM101,238.41c1,6.83-3.75,13.51-9.85,16.73-7,3.71-17.55,2.52-20.64-4.8C63.48,233.7,98.14,218.64,101,238.41Zm366.84,33.65a49.88,49.88,0,0,1-31.9,41.33c-9.34,3.39-19.82,4-28.16,9.38s-12.75,18.83-4.95,25c7.57,6,18.56-.1,25.54-6.75s15.41-14.67,24.72-12.17c11.88,3.18,12.41,21.53,3.75,30.27S435.1,370,423.23,373.19s-24.75,9.51-28,21.39c-4.83,17.75,14.89,33.81,14.35,52.2-.48,16.27-17.41,28.1-33.66,29s-31.73-6.24-46.5-13.05S299,449,282.79,450.42c-23,2-41,19.69-59.72,33.14-25.08,18-55.4,29.6-86.24,28.85s-61.92-14.92-79.67-40.15-20-61.54-2.35-86.86c9.87-14.19,25.34-25,30.47-41.49,8.91-28.65-5.87-61.59,27.11-78.94,11-5.79,23.5-8,35.75-10.1a21.27,21.27,0,0,0,7.08-2.11c2.15-1.24,3.91-3.44,3.92-5.92,0-4.09-4.79-6.81-8.84-6.21-9.4,1.42-11,9.16-21.8,7.65-7.83-1.09-15.66-5.16-19.13-12.59-5.7-12.24,2.74-26.83,13.75-34.64s24.45-11.63,35.48-19.41c27.74-19.57,18.81-48.43,29.92-75.36,11-26.75,34.82-47.85,64.13-51.55,33.72-4.25,69,16.09,82.3,47.38,2.89,6.81,5.66,14.92,12.63,17.39,8.08,2.86,16.44-3.76,25-4,10.83-.31,19.52,9.92,21.79,20.51s-.1,21.54-1.52,32.27-1.67,22.42,4.18,31.54c9.8,15.28,31.37,16.54,47,25.77A49.86,49.86,0,0,1,467.82,272.06ZM10.29,7.89,8.76,567.15H505.69L505.28,8.66Z"/><path class="cls-7" d="M79.62,171.4c4.18-7,11.84-11.16,19.33-14.43s15.43-6.14,21.36-11.77c7.53-7.13,10.74-17.66,12.67-27.85s2.93-20.73,7.23-30.17c7-15.42,39.69-28.85,38.56-3-.37,8.56-5.34,20-7.33,28.53-2.74,11.68-7.12,23-15.28,32-11.54,12.72-28.79,19-40.78,31.27-4.58,4.69-8.35,10.23-13.57,14.18s-12.63,6.07-18.34,2.85C76.35,189,75.44,178.42,79.62,171.4Zm20.53,67.74c1,6.91-3.8,13.68-10,16.94-7.12,3.76-17.78,2.56-20.91-4.87C62.17,234.37,97.27,219.11,100.15,239.14ZM469.7,272.56a50.23,50.23,0,0,1-32.12,41.61c-9.4,3.41-19.95,4-28.34,9.44s-12.84,18.95-5,25.15c7.62,6,18.68-.1,25.71-6.79s15.51-14.78,24.88-12.26c12,3.2,12.5,21.67,3.78,30.48s-21.86,10.93-33.81,14.18-24.91,9.57-28.17,21.52c-4.86,17.88,15,34,14.45,52.56-.48,16.37-17.53,28.28-33.88,29.15s-31.94-6.28-46.82-13.14-30.64-13.75-46.95-12.34c-23.17,2-41.23,19.81-60.13,33.36-25.24,18.08-55.77,29.79-86.81,29s-62.34-15-80.2-40.41-20.11-62-2.37-87.45c9.94-14.28,25.51-25.15,30.68-41.76,9-28.84-5.92-62,27.28-79.46,11.08-5.83,23.66-8,36-10.17a21.47,21.47,0,0,0,7.14-2.13,7.3,7.3,0,0,0,3.94-6c0-4.12-4.83-6.85-8.9-6.24-9.46,1.42-11,9.22-21.94,7.7-7.89-1.1-15.77-5.2-19.26-12.68-5.75-12.32,2.76-27,13.83-34.87s24.62-11.71,35.72-19.54c27.93-19.7,18.94-48.75,30.12-75.86,11.1-26.93,35.06-48.17,64.56-51.89C287,49.51,322.6,70,335.94,101.48c2.91,6.86,5.69,15,12.71,17.51,8.14,2.88,16.55-3.79,25.18-4,10.9-.32,19.65,10,21.94,20.65s-.1,21.68-1.53,32.48-1.68,22.57,4.2,31.75c9.87,15.39,31.58,16.65,47.33,25.94C461.69,235.16,471.4,254.16,469.7,272.56ZM9.26,7.1l-1.38,561H506.7L506.33,7.79Z"/><path class="cls-8" d="M78.53,171.26c4.23-7.12,12-11.3,19.57-14.61s15.63-6.22,21.63-11.92c7.63-7.22,10.88-17.88,12.84-28.2s3-21,7.32-30.56c7.13-15.61,40.2-29.21,39.05-3-.38,8.68-5.41,20.29-7.43,28.9-2.77,11.82-7.2,23.32-15.47,32.44-11.68,12.89-29.15,19.22-41.3,31.68-4.63,4.75-8.45,10.35-13.74,14.35s-12.79,6.14-18.57,2.89C75.22,189.13,74.3,178.37,78.53,171.26Zm20.79,68.6c1,7-3.85,13.86-10.1,17.16-7.22,3.81-18,2.59-21.18-4.93C60.85,235,96.41,219.58,99.32,239.86Zm372.25,33.21a50.51,50.51,0,0,1-32.33,41.87c-9.46,3.44-20.07,4-28.53,9.51s-12.92,19.08-5,25.32c7.67,6.05,18.81-.1,25.88-6.84s15.62-14.87,25.05-12.34c12,3.23,12.58,21.82,3.81,30.68s-22,11-34,14.28-25.08,9.63-28.35,21.66c-4.9,18,15.08,34.27,14.54,52.91-.49,16.48-17.65,28.46-34.11,29.34s-32.15-6.32-47.12-13.22-30.85-13.85-47.27-12.43c-23.32,2-41.5,19.95-60.52,33.58-25.41,18.2-56.14,30-87.39,29.23S73.42,501.5,55.44,475.94s-20.24-62.37-2.39-88c10-14.37,25.68-25.32,30.88-42,9-29-6-62.41,27.47-80,11.15-5.86,23.81-8.06,36.23-10.23a21.7,21.7,0,0,0,7.18-2.14c2.17-1.26,4-3.49,4-6,0-4.15-4.86-6.9-9-6.29-9.52,1.43-11.11,9.28-22.09,7.75-7.94-1.1-15.87-5.23-19.38-12.76-5.79-12.4,2.77-27.18,13.92-35.1s24.78-11.78,36-19.67c28.11-19.83,19.06-49.08,30.31-76.37,11.18-27.1,35.29-48.49,65-52.23,34.17-4.31,70,16.3,83.4,48,2.93,6.9,5.73,15.12,12.8,17.62,8.19,2.9,16.66-3.81,25.34-4.06,11-.32,19.78,10,22.09,20.78s-.11,21.82-1.54,32.71-1.7,22.71,4.23,31.95c9.93,15.49,31.79,16.76,47.64,26.11C463.51,235.42,473.29,254.54,471.57,273.07ZM8.23,6.31,7,569.08H507.7L507.37,6.93Z"/><path class="cls-9" d="M77.44,171.12c4.28-7.2,12.13-11.44,19.82-14.79s15.82-6.3,21.9-12.07c7.72-7.31,11-18.11,13-28.56s3-21.26,7.42-30.93c7.21-15.81,40.7-29.59,39.54-3.09-.38,8.79-5.47,20.54-7.52,29.27-2.8,12-7.3,23.61-15.66,32.84-11.84,13.06-29.53,19.47-41.83,32.08-4.69,4.81-8.55,10.48-13.91,14.54s-13,6.21-18.8,2.92C74.08,189.22,73.15,178.33,77.44,171.12Zm21,69.47c1,7.09-3.9,14-10.23,17.37C81,261.82,70,260.58,66.82,253,59.54,235.7,95.54,220.05,98.49,240.59Zm375,33c-1.73,18.65-14.94,35.76-32.54,42.15-9.53,3.46-20.21,4.07-28.72,9.57s-13,19.21-5.05,25.48c7.71,6.09,18.92-.1,26-6.88s15.72-15,25.22-12.42c12.12,3.25,12.66,22,3.83,30.88S440.07,373.43,428,376.72s-25.25,9.7-28.54,21.81c-4.93,18.12,15.18,34.49,14.63,53.26-.48,16.58-17.76,28.65-34.33,29.53S347.37,475,332.3,468s-31.05-13.94-47.58-12.51c-23.47,2-41.77,20.08-60.92,33.8-25.58,18.33-56.51,30.19-88,29.42s-63.17-15.21-81.27-41S34.2,415,52.17,389.17C62.24,374.7,78,363.69,83.26,346.85c9.09-29.22-6-62.82,27.65-80.51,11.22-5.91,24-8.12,36.46-10.3a21.94,21.94,0,0,0,7.23-2.16c2.19-1.26,4-3.51,4-6,0-4.17-4.89-7-9-6.33-9.59,1.44-11.19,9.34-22.23,7.81-8-1.11-16-5.27-19.52-12.85-5.82-12.48,2.8-27.36,14-35.34s24.94-11.85,36.19-19.79c28.3-20,19.19-49.4,30.52-76.87C199.81,77.18,224.08,55.66,254,51.89c34.39-4.33,70.43,16.41,84,48.33,2.95,7,5.77,15.22,12.88,17.74,8.25,2.92,16.77-3.84,25.51-4.09,11.05-.32,19.91,10.12,22.23,20.92s-.1,22-1.55,32.92-1.7,22.86,4.26,32.16c10,15.59,32,16.87,47.95,26.29C465.34,235.67,475.18,254.92,473.45,273.57ZM7.21,5.52,6.13,570.05H508.7l-.28-564Z"/><path class="cls-10" d="M76.34,171c4.34-7.3,12.29-11.59,20.07-15s16-6.38,22.17-12.22c7.82-7.41,11.15-18.33,13.16-28.91s3-21.53,7.51-31.32c7.3-16,41.2-29.95,40-3.12-.39,8.89-5.54,20.79-7.61,29.62-2.84,12.12-7.39,23.91-15.86,33.26-12,13.21-29.89,19.7-42.35,32.47-4.75,4.87-8.66,10.61-14.08,14.72s-13.11,6.29-19,3C73,189.3,72,178.28,76.34,171Zm21.32,70.32c1,7.18-4,14.2-10.36,17.59-7.4,3.9-18.46,2.65-21.71-5C58.22,236.36,94.67,220.52,97.66,241.31Zm377.66,32.76c-1.73,18.78-15,36-32.75,42.43-9.59,3.48-20.34,4.09-28.91,9.63s-13.09,19.33-5.08,25.65c7.77,6.13,19.05-.1,26.22-6.93s15.82-15.06,25.38-12.5c12.2,3.27,12.74,22.11,3.85,31.09s-22.3,11.14-34.49,14.46-25.4,9.76-28.72,22c-5,18.23,15.28,34.72,14.73,53.6-.49,16.7-17.87,28.84-34.55,29.73s-32.58-6.4-47.75-13.4-31.24-14-47.89-12.59c-23.62,2-42,20.21-61.31,34-25.75,18.45-56.88,30.39-88.54,29.62s-63.58-15.32-81.8-41.22-20.5-63.19-2.41-89.18c10.13-14.56,26-25.65,31.28-42.59,9.15-29.42-6-63.24,27.83-81,11.3-5.94,24.13-8.17,36.7-10.37a21.69,21.69,0,0,0,7.28-2.17c2.21-1.27,4-3.53,4-6.07,0-4.2-4.93-7-9.08-6.37-9.65,1.45-11.26,9.4-22.38,7.85-8-1.12-16.08-5.3-19.64-12.93-5.86-12.56,2.81-27.54,14.11-35.57s25.1-11.93,36.42-19.92c28.49-20.09,19.32-49.72,30.72-77.37C199.89,76.4,224.33,54.74,254.42,51,289,46.58,325.3,67.47,338.91,99.59c3,7,5.81,15.32,13,17.85,8.3,2.94,16.87-3.86,25.67-4.11,11.12-.33,20,10.18,22.38,21s-.1,22.11-1.56,33.14-1.72,23,4.29,32.37c10.06,15.69,32.2,17,48.26,26.46C467.16,235.93,477.06,255.3,475.32,274.07ZM6.18,4.73,5.26,571H509.71L509.46,5.2Z"/><path class="cls-11" d="M75.25,170.85c4.4-7.39,12.44-11.73,20.32-15.16s16.21-6.45,22.44-12.37c7.91-7.5,11.29-18.55,13.31-29.26s3.08-21.79,7.61-31.71c7.39-16.2,41.71-30.31,40.52-3.16-.4,9-5.61,21-7.71,30-2.87,12.27-7.48,24.2-16.05,33.66-12.13,13.38-30.26,19.95-42.86,32.87-4.81,4.93-8.77,10.74-14.26,14.9s-13.27,6.37-19.27,3C71.82,189.39,70.86,178.23,75.25,170.85ZM96.83,242c1,7.26-4,14.37-10.49,17.8-7.48,4-18.69,2.69-22-5.11C56.91,237,93.8,221,96.83,242ZM477.2,274.57c-1.75,18.9-15.13,36.23-33,42.71-9.64,3.5-20.47,4.12-29.09,9.69S402,346.43,410,352.79c7.82,6.17,19.18-.1,26.39-7s15.92-15.17,25.54-12.59c12.28,3.29,12.83,22.25,3.88,31.29s-22.44,11.22-34.71,14.56-25.57,9.82-28.91,22.09c-5,18.35,15.38,34.94,14.83,53.95-.49,16.81-18,29-34.78,29.92s-32.79-6.44-48.05-13.48-31.45-14.12-48.2-12.68c-23.78,2.05-42.32,20.35-61.72,34.25-25.91,18.56-57.25,30.58-89.11,29.8s-64-15.41-82.33-41.48-20.64-63.6-2.43-89.76c10.2-14.66,26.19-25.82,31.49-42.87,9.21-29.61-6.07-63.65,28-81.57,11.37-6,24.28-8.22,36.94-10.44a22,22,0,0,0,7.32-2.18c2.22-1.28,4-3.56,4-6.12,0-4.23-4.95-7-9.13-6.41-9.71,1.46-11.33,9.46-22.53,7.91-8.1-1.13-16.18-5.34-19.77-13-5.89-12.64,2.84-27.72,14.21-35.8s25.26-12,36.66-20.05c28.67-20.22,19.44-50,30.91-77.87,11.4-27.65,36-49.45,66.28-53.27,34.84-4.39,71.35,16.63,85,49,3,7,5.84,15.42,13.05,18,8.35,3,17-3.89,25.85-4.14C390,112.46,399,123,401.32,134s-.11,22.25-1.58,33.35-1.72,23.16,4.32,32.58c10.13,15.8,32.42,17.1,48.58,26.63C469,236.18,479,255.68,477.2,274.57ZM5.15,3.94,4.38,572H510.71l-.2-567.65Z"/><path class="cls-12" d="M74.16,170.71c4.45-7.47,12.59-11.86,20.56-15.34s16.41-6.53,22.72-12.52c8-7.59,11.42-18.78,13.47-29.62s3.12-22,7.7-32.09c7.48-16.39,42.21-30.68,41-3.19-.4,9.11-5.68,21.3-7.8,30.35-2.91,12.41-7.57,24.49-16.25,34.07C143.3,155.9,125,162.55,112.19,175.63c-4.87,5-8.88,10.88-14.43,15.08s-13.43,6.45-19.5,3C70.68,189.48,69.72,178.18,74.16,170.71Zm21.84,72c1.06,7.36-4,14.55-10.62,18-7.57,4-18.91,2.72-22.24-5.18C55.6,237.69,92.93,221.46,96,242.76Zm383.08,32.32c-1.77,19-15.23,36.46-33.18,43-9.71,3.52-20.61,4.14-29.29,9.75s-13.26,19.58-5.15,26c7.87,6.21,19.3-.1,26.56-7s16-15.26,25.71-12.67c12.36,3.32,12.91,22.4,3.9,31.49s-22.58,11.29-34.93,14.65-25.74,9.89-29.1,22.24c-5,18.47,15.48,35.17,14.93,54.3-.5,16.91-18.11,29.21-35,30.11s-33-6.48-48.36-13.57-31.65-14.21-48.51-12.76c-23.93,2.06-42.59,20.48-62.12,34.47-26.07,18.68-57.61,30.78-89.69,30S70.44,509.52,52,483.28s-20.77-64-2.45-90.34c10.27-14.75,26.36-26,31.7-43.14,9.27-29.8-6.11-64.06,28.19-82.1,11.44-6,24.43-8.27,37.17-10.5A22,22,0,0,0,154,255c2.24-1.28,4.07-3.58,4.08-6.15,0-4.26-5-7.09-9.19-6.46-9.78,1.47-11.41,9.53-22.67,8-8.15-1.13-16.29-5.37-19.9-13.1-5.93-12.72,2.85-27.9,14.29-36S146,189.13,157.48,181c28.85-20.35,19.57-50.37,31.12-78.38,11.47-27.82,36.22-49.76,66.7-53.6,35.06-4.43,71.81,16.73,85.59,49.27,3,7.09,5.88,15.52,13.14,18.09,8.4,3,17.09-3.92,26-4.18,11.26-.32,20.29,10.32,22.66,21.33s-.1,22.4-1.58,33.57-1.74,23.31,4.34,32.79c10.2,15.9,32.63,17.21,48.89,26.8C470.8,236.44,480.84,256.06,479.08,275.08ZM4.12,3.16,3.5,572.94H511.72L511.55,3.46Z"/><path class="cls-13" d="M73.07,170.57c4.5-7.56,12.74-12,20.8-15.52s16.61-6.61,23-12.67c8.1-7.68,11.56-19,13.64-30s3.15-22.32,7.78-32.47c7.58-16.6,42.72-31,41.51-3.24-.41,9.22-5.75,21.56-7.9,30.72C169,120,164.23,132.2,155.45,141.89c-12.42,13.7-31,20.43-43.9,33.67-4.92,5-9,11-14.6,15.26s-13.59,6.52-19.73,3.06C69.55,189.57,68.57,178.14,73.07,170.57Zm22.1,72.92c1.07,7.44-4.09,14.72-10.74,18.23-7.67,4-19.14,2.75-22.51-5.24C54.28,238.35,92.07,221.93,95.17,243.49ZM481,275.58c-1.77,19.14-15.32,36.69-33.39,43.26-9.77,3.54-20.74,4.17-29.47,9.81s-13.35,19.71-5.19,26.15c7.92,6.25,19.43-.1,26.73-7.06s16.13-15.36,25.88-12.75c12.44,3.34,13,22.54,3.93,31.69s-22.74,11.37-35.16,14.75-25.9,10-29.29,22.38c-5.06,18.59,15.59,35.39,15,54.65-.49,17-18.22,29.4-35.22,30.3s-33.21-6.52-48.68-13.66-31.85-14.3-48.82-12.84c-24.08,2.08-42.86,20.61-62.51,34.69-26.25,18.81-58,31-90.27,30.19s-64.81-15.61-83.38-42S30.22,420.7,48.67,394.2C59,379.36,75.19,368.05,80.56,350.78c9.33-30-6.15-64.47,28.37-82.62,11.52-6.06,24.6-8.33,37.42-10.57a22.6,22.6,0,0,0,7.42-2.21c2.24-1.3,4.09-3.6,4.1-6.2,0-4.28-5-7.13-9.25-6.49-9.84,1.47-11.48,9.58-22.82,8-8.2-1.14-16.39-5.4-20-13.18-6-12.8,2.86-28.08,14.38-36.26s25.59-12.17,37.14-20.31c29-20.48,19.69-50.69,31.31-78.88,11.54-28,36.45-50.08,67.13-53.95C291,43.66,328,65,341.88,97.7c3,7.13,5.92,15.62,13.22,18.2,8.46,3,17.21-3.94,26.18-4.2,11.33-.33,20.42,10.39,22.81,21.47S404,155.71,402.5,167s-1.75,23.46,4.37,33c10.26,16,32.83,17.32,49.2,27C472.63,236.69,482.72,256.44,481,275.58ZM3.09,2.37,2.63,573.91H512.72L512.59,2.6Z"/><path class="cls-14" d="M72,170.44c4.55-7.65,12.88-12.15,21-15.71s16.8-6.69,23.26-12.82c8.19-7.77,11.69-19.23,13.79-30.33S133.27,89,138,78.73c7.66-16.79,43.23-31.42,42-3.28-.41,9.33-5.82,21.82-8,31.08-3,12.71-7.75,25.08-16.64,34.89-12.56,13.86-31.35,20.67-44.42,34.06-5,5.11-9.08,11.13-14.77,15.44s-13.75,6.6-20,3.1C68.41,189.65,67.42,178.09,72,170.44Zm22.36,73.77c1.08,7.53-4.14,14.9-10.87,18.45-7.76,4.1-19.37,2.79-22.77-5.3C53,239,91.2,222.4,94.34,244.21Zm388.49,31.87C481,295.34,467.4,313,449.22,319.61c-9.83,3.57-20.87,4.2-29.65,9.88s-13.44,19.84-5.22,26.32c8,6.29,19.54-.11,26.9-7.11s16.23-15.46,26-12.83c12.51,3.36,13.07,22.69,3.95,31.9s-22.88,11.44-35.38,14.84-26.07,10-29.47,22.52c-5.1,18.7,15.68,35.61,15.11,55-.5,17.13-18.34,29.59-35.45,30.5s-33.42-6.57-49-13.74S305,462.49,287.93,464C263.7,466,244.8,484.69,225,498.86c-26.41,18.93-58.35,31.18-90.84,30.39S69,513.54,50.27,487s-21-64.83-2.48-91.5c10.39-14.94,26.69-26.32,32.1-43.7,9.39-30.18-6.19-64.88,28.55-83.15,11.59-6.09,24.75-8.38,37.65-10.63a22.53,22.53,0,0,0,7.47-2.23c2.26-1.3,4.12-3.62,4.13-6.23,0-4.31-5.05-7.18-9.32-6.54-9.89,1.49-11.54,9.65-23,8.06-8.26-1.15-16.5-5.44-20.16-13.27-6-12.89,2.89-28.25,14.48-36.49s25.75-12.24,37.37-20.44c29.22-20.61,19.82-51,31.52-79.38,11.61-28.18,36.68-50.4,67.55-54.3,35.51-4.47,72.73,17,86.69,49.91,3,7.18,6,15.72,13.3,18.32,8.52,3,17.32-4,26.35-4.23,11.4-.33,20.56,10.45,23,21.61s-.1,22.68-1.6,34-1.76,23.61,4.4,33.21c10.33,16.11,33,17.43,49.52,27.15C474.45,237,484.61,256.82,482.83,276.08ZM2.06,1.58,1.75,574.87h512L513.64,1.73Z"/><path class="cls-15" d="M70.88,170.3c4.61-7.74,13-12.29,21.3-15.89s17-6.77,23.53-13c8.29-7.86,11.83-19.45,14-30.68s3.23-22.84,8-33.24c7.75-17,43.73-31.78,42.48-3.31-.41,9.44-5.88,22.07-8.08,31.44-3,12.86-7.84,25.37-16.83,35.29-12.71,14-31.72,20.91-44.93,34.46-5,5.17-9.2,11.26-15,15.62s-13.91,6.68-20.2,3.14C67.28,189.74,66.28,178,70.88,170.3ZM93.5,244.94c1.1,7.62-4.18,15.07-11,18.66-7.85,4.14-19.59,2.82-23-5.36C51.65,239.68,90.33,222.87,93.5,244.94Zm391.2,31.65c-1.79,19.38-15.52,37.16-33.82,43.8-9.89,3.6-21,4.23-29.84,9.94s-13.52,20-5.25,26.49c8,6.33,19.67-.11,27.07-7.16s16.33-15.55,26.2-12.9c12.6,3.37,13.16,22.82,4,32.09s-23,11.51-35.6,14.93-26.24,10.09-29.66,22.67c-5.13,18.82,15.78,35.84,15.21,55.34-.51,17.24-18.46,29.78-35.68,30.69s-33.63-6.61-49.29-13.83-32.26-14.48-49.45-13c-24.39,2.1-43.4,20.87-63.3,35.13-26.58,19-58.73,31.37-91.42,30.57S68.21,515.54,49.4,488.79s-21.17-65.23-2.49-92.07c10.46-15,26.86-26.49,32.3-44,9.45-30.37-6.22-65.28,28.73-83.67,11.67-6.14,24.91-8.43,37.9-10.71a22.37,22.37,0,0,0,7.51-2.24c2.28-1.31,4.15-3.64,4.16-6.27,0-4.34-5.09-7.22-9.38-6.58-10,1.5-11.62,9.71-23.1,8.11-8.31-1.15-16.6-5.47-20.28-13.35-6-13,2.9-28.43,14.57-36.72s25.91-12.32,37.61-20.57c29.4-20.74,19.94-51.34,31.71-79.88,11.69-28.36,36.92-50.72,68-54.64,35.74-4.51,73.19,17.05,87.24,50.22,3.06,7.22,6,15.82,13.39,18.43,8.57,3,17.42-4,26.51-4.25,11.47-.33,20.69,10.52,23.1,21.74s-.11,22.83-1.61,34.21-1.77,23.76,4.42,33.43c10.4,16.2,33.26,17.53,49.84,27.31C476.27,237.2,486.5,257.2,484.7,276.59ZM1,.79.88,575.84H514.73l-.05-575Z"/><path d="M69.79,170.16c4.66-7.83,13.19-12.43,21.54-16.07s17.2-6.85,23.81-13.12c8.38-7.95,12-19.68,14.12-31s3.26-23.1,8.06-33.62c7.84-17.18,44.23-32.15,43-3.35-.41,9.55-5.95,22.33-8.17,31.81-3.05,13-7.93,25.66-17,35.69-12.86,14.19-32.08,21.16-45.45,34.86-5.1,5.23-9.3,11.39-15.12,15.8s-14.07,6.76-20.43,3.18C66.15,189.83,65.13,178,69.79,170.16Zm22.88,75.5c1.11,7.71-4.23,15.24-11.12,18.88-7.94,4.19-19.82,2.85-23.3-5.42C50.34,240.35,89.46,223.34,92.67,245.66Zm393.91,31.43c-1.81,19.5-15.62,37.39-34,44.08-10,3.62-21.14,4.25-30,10s-13.6,20.09-5.29,26.65c8.07,6.37,19.8-.1,27.24-7.19s16.44-15.66,26.37-13c12.68,3.39,13.24,23,4,32.29S451.68,381.52,439,385s-26.39,10.15-29.84,22.81c-5.16,18.94,15.88,36.06,15.31,55.69-.51,17.34-18.58,30-35.91,30.88s-33.84-6.65-49.6-13.92-32.46-14.57-49.75-13.08c-24.55,2.11-43.68,21-63.71,35.35-26.75,19.16-59.09,31.57-92,30.77s-66.05-15.91-85-42.83S27.24,425,46,398c10.53-15.13,27-26.65,32.51-44.25,9.51-30.56-6.27-65.7,28.91-84.21,11.74-6.17,25.07-8.48,38.13-10.77a22.59,22.59,0,0,0,7.56-2.25c2.29-1.32,4.17-3.67,4.18-6.32,0-4.36-5.11-7.26-9.43-6.61-10,1.5-11.69,9.76-23.25,8.16-8.36-1.17-16.7-5.51-20.4-13.44-6.09-13,2.92-28.61,14.66-36.95s26.08-12.4,37.84-20.7c29.59-20.87,20.07-51.66,31.91-80.38,11.77-28.54,37.15-51.05,68.41-55,36-4.53,73.65,17.16,87.79,50.54,3.08,7.27,6,15.92,13.47,18.55,8.62,3,17.54-4,26.68-4.28,11.55-.33,20.82,10.58,23.25,21.88s-.11,23-1.63,34.42-1.78,23.91,4.46,33.64c10.46,16.3,33.46,17.64,50.14,27.49C478.09,237.46,488.38,257.58,486.58,277.09ZM0,0V576.8H515.73V0Z"/></g><path class="cls-16" d="M0,0V576.8H515.73V0ZM71,170.75c4.66-7.83,13.19-12.43,21.54-16.07s17.19-6.85,23.8-13.12c8.39-8,12-19.68,14.12-31s3.27-23.11,8.07-33.62c7.84-17.19,44.23-32.15,43-3.35-.42,9.54-6,22.32-8.17,31.8-3,13-7.93,25.67-17,35.7-12.86,14.18-32.09,21.15-45.45,34.86-5.1,5.22-9.3,11.39-15.12,15.8s-14.07,6.75-20.44,3.17C67.31,190.41,66.3,178.58,71,170.75Zm22.88,75.5c1.11,7.7-4.23,15.24-11.12,18.87-7.94,4.2-19.82,2.85-23.3-5.42C51.51,240.93,90.63,223.93,93.84,246.25Zm393.91,31.42c-1.81,19.51-15.62,37.4-34,44.08-10,3.62-21.14,4.25-30,10s-13.6,20.08-5.28,26.65c8.07,6.37,19.79-.11,27.24-7.2s16.44-15.65,26.37-13c12.67,3.4,13.23,23,4,32.3s-23.17,11.58-35.83,15-26.39,10.14-29.84,22.8c-5.16,18.94,15.88,36.07,15.3,55.69-.5,17.35-18.57,30-35.9,30.88s-33.84-6.64-49.6-13.91-32.46-14.58-49.76-13.09c-24.54,2.12-43.68,21-63.7,35.35-26.75,19.17-59.1,31.57-92,30.77s-66-15.91-85-42.82-21.3-65.65-2.51-92.66c10.53-15.13,27-26.65,32.51-44.25,9.5-30.56-6.27-65.7,28.91-84.2,11.74-6.18,25.06-8.49,38.13-10.77a22.84,22.84,0,0,0,7.56-2.26c2.29-1.32,4.17-3.67,4.18-6.31,0-4.37-5.11-7.27-9.43-6.62-10,1.51-11.69,9.77-23.25,8.16-8.36-1.16-16.71-5.51-20.41-13.44-6.08-13,2.93-28.61,14.66-37s26.08-12.4,37.85-20.69c29.59-20.88,20.07-51.66,31.91-80.39,11.76-28.54,37.15-51,68.41-55,36-4.54,73.65,17.16,87.79,50.53,3.08,7.27,6,15.92,13.47,18.55,8.62,3.06,17.53-4,26.68-4.28,11.55-.33,20.82,10.59,23.24,21.88s-.1,23-1.62,34.43-1.78,23.91,4.46,33.63c10.45,16.31,33.46,17.65,50.14,27.49C479.26,238,489.55,258.17,487.75,277.67Z"/><path class="cls-17" d="M0,0V576.8H1031.46V0ZM69.5,170.82C74.16,163,82.69,158.39,91,154.75s17.19-6.85,23.8-13.12c8.39-7.95,12-19.68,14.12-31S132.23,87.48,137,77c7.84-17.18,44.23-32.15,43-3.35-.42,9.55-5.95,22.32-8.17,31.8-3.05,13-7.93,25.67-17,35.7-12.86,14.18-32.09,21.15-45.45,34.86-5.1,5.22-9.3,11.39-15.12,15.8S80.16,198.54,73.79,195C65.85,190.48,64.84,178.65,69.5,170.82Zm22.88,75.5c1.11,7.7-4.23,15.24-11.12,18.88-7.94,4.19-19.82,2.85-23.3-5.43C50.05,241,89.17,224,92.38,246.32Zm393.91,31.42c-1.81,19.51-15.62,37.4-34,44.09-10,3.61-21.14,4.25-30,10s-13.6,20.09-5.28,26.65c8.07,6.37,19.79-.11,27.24-7.2s16.44-15.65,26.37-13c12.67,3.4,13.23,23,4,32.3s-23.17,11.58-35.83,15-26.39,10.14-29.84,22.8c-5.16,18.95,15.88,36.07,15.3,55.69-.5,17.35-18.57,30-35.9,30.89s-33.84-6.65-49.6-13.92S306.22,466.51,288.92,468c-24.54,2.11-43.68,21-63.7,35.34-26.75,19.17-59.1,31.58-92,30.77s-66-15.91-85-42.82S27,425.64,45.74,398.63c10.53-15.13,27-26.65,32.51-44.25,9.5-30.56-6.27-65.7,28.91-84.2,11.74-6.17,25.06-8.49,38.13-10.77a22.84,22.84,0,0,0,7.56-2.26c2.29-1.31,4.17-3.67,4.18-6.31,0-4.36-5.11-7.27-9.43-6.62-10,1.51-11.69,9.77-23.25,8.16-8.36-1.16-16.71-5.5-20.41-13.44-6.08-13,2.93-28.61,14.66-36.94s26.08-12.4,37.85-20.7c29.59-20.87,20.07-51.66,31.91-80.39,11.76-28.53,37.15-51,68.41-55,36-4.54,73.65,17.16,87.79,50.54,3.08,7.26,6,15.91,13.47,18.55,8.62,3,17.53-4,26.68-4.28,11.55-.34,20.82,10.58,23.24,21.87s-.1,23-1.62,34.43-1.78,23.91,4.46,33.63c10.45,16.31,33.46,17.65,50.14,27.49C477.8,238.12,488.09,258.24,486.29,277.74Z"/></g></g></g></g></svg>